<svg width="64" height="64" viewBox="0 0 64 64" xmlns="http://www.w3.org/2000/svg">
  <path d="M24 20c0-6.6 5.4-12 12-12s12 5.4 12 12c0 1.7-.4 3.3-1 4.7C49.2 25.5 51 27.6 51 30c0 3.3-2.7 6-6 6H21c-3.3 0-6-2.7-6-6s2.7-6 6-6c0-2.2 1.8-4 4-4h-1z" fill="#B0BEC5" stroke="#90A4AE" stroke-width="2"/>
  <g stroke="#81D4FA" stroke-width="2" stroke-linecap="round" opacity="0.8">
    <line x1="22" y1="40" x2="21" y2="44"/>
    <line x1="28" y1="42" x2="27" y2="46"/>
    <line x1="34" y1="40" x2="33" y2="44"/>
    <line x1="40" y1="42" x2="39" y2="46"/>
    <line x1="25" y1="48" x2="24" y2="52"/>
    <line x1="31" y1="50" x2="30" y2="54"/>
    <line x1="37" y1="48" x2="36" y2="52"/>
  </g>
</svg>