<svg width="64" height="64" viewBox="0 0 64 64" xmlns="http://www.w3.org/2000/svg">
  <path d="M24 20c0-6.6 5.4-12 12-12s12 5.4 12 12c0 1.7-.4 3.3-1 4.7C49.2 25.5 51 27.6 51 30c0 3.3-2.7 6-6 6H21c-3.3 0-6-2.7-6-6s2.7-6 6-6c0-2.2 1.8-4 4-4h-1z" fill="#9E9E9E" stroke="#757575" stroke-width="2"/>
  <g stroke="#4FC3F7" stroke-width="3" stroke-linecap="round">
    <line x1="20" y1="42" x2="18" y2="50"/>
    <line x1="26" y1="40" x2="24" y2="48"/>
    <line x1="32" y1="42" x2="30" y2="50"/>
    <line x1="38" y1="40" x2="36" y2="48"/>
    <line x1="44" y1="42" x2="42" y2="50"/>
  </g>
</svg>