<svg width="64" height="64" viewBox="0 0 64 64" xmlns="http://www.w3.org/2000/svg">
  <path d="M24 20c0-6.6 5.4-12 12-12s12 5.4 12 12c0 1.7-.4 3.3-1 4.7C49.2 25.5 51 27.6 51 30c0 3.3-2.7 6-6 6H21c-3.3 0-6-2.7-6-6s2.7-6 6-6c0-2.2 1.8-4 4-4h-1z" fill="#B0BEC5" stroke="#90A4AE" stroke-width="2"/>
  <g fill="white" stroke="#E1F5FE" stroke-width="1">
    <circle cx="20" cy="44" r="2"/>
    <circle cx="28" cy="42" r="2"/>
    <circle cx="36" cy="46" r="2"/>
    <circle cx="44" cy="44" r="2"/>
    <circle cx="24" cy="50" r="2"/>
    <circle cx="32" cy="52" r="2"/>
    <circle cx="40" cy="50" r="2"/>
  </g>
</svg>