<svg width="64" height="64" viewBox="0 0 64 64" xmlns="http://www.w3.org/2000/svg">
  <path d="M24 18c0-6.6 5.4-12 12-12s12 5.4 12 12c0 1.7-.4 3.3-1 4.7C49.2 23.5 51 25.6 51 28c0 3.3-2.7 6-6 6H21c-3.3 0-6-2.7-6-6s2.7-6 6-6c0-2.2 1.8-4 4-4h-1z" fill="#546E7A" stroke="#37474F" stroke-width="2"/>
  <path d="M28 36L24 44h6l-2 8 8-10h-4l2-6z" fill="#FFD54F" stroke="#FFA000" stroke-width="1"/>
  <g stroke="#4FC3F7" stroke-width="2" stroke-linecap="round">
    <line x1="18" y1="40" x2="16" y2="46"/>
    <line x1="42" y1="38" x2="40" y2="44"/>
    <line x1="46" y1="42" x2="44" y2="48"/>
  </g>
</svg>